<?xml version="1.0" encoding="UTF-8"?>
<svg version="1.1" xmlns="http://www.w3.org/2000/svg" width="2000" height="2250">
<path d="M0 0 C6.64594783 4.47667146 12.63840755 9.49967509 18.65673828 14.76757812 C27.47862902 22.41732953 37.42867189 29.78687658 49.64428711 29.3293457 C52.13677086 29.04690068 54.55534829 28.57776022 57.01171875 28.0703125 C57.90318604 27.88750732 58.79465332 27.70470215 59.71313477 27.51635742 C60.38787842 27.37560791 61.06262207 27.2348584 61.7578125 27.08984375 C64.45678719 79.93519401 64.45678719 79.93519401 51.8515625 95.05078125 C41.40808764 105.22147879 26.30490356 106.49544132 12.43070984 106.37843323 C11.69832281 106.36769838 10.96593578 106.35696354 10.21135521 106.3459034 C7.84453574 106.31131261 5.47820103 106.29627073 3.11116028 106.28526306 C-1.09629462 106.26266498 -5.30340675 106.22379497 -9.51068115 106.17926025 C-16.96924549 106.10034596 -24.42781989 106.03643921 -31.88671875 106 C-32.6992555 105.99602518 -33.51179226 105.99205036 -34.34895134 105.98795509 C-117.03445097 105.69327194 -196.95467349 125.56615758 -271.50439453 160.79882812 C-274.20137349 162.07059776 -276.906262 163.32398699 -279.61328125 164.57421875 C-291.49630834 170.09918889 -303.00107363 176.18558564 -314.45410156 182.54882812 C-317.26839076 184.10432667 -320.09289523 185.63936794 -322.921875 187.16796875 C-333.29721044 192.77531296 -343.54658753 198.53543324 -353.67773438 204.57128906 C-356.6967488 206.35901466 -359.72670055 208.12739472 -362.7578125 209.89453125 C-375.12799206 217.10828679 -387.45256438 224.38573999 -399.6796875 231.83984375 C-411.47275254 239.02889391 -423.32469302 246.10890233 -435.2421875 253.08984375 C-436.2110791 253.65799805 -437.1799707 254.22615234 -438.17822266 254.81152344 C-448.01474117 260.57638785 -457.86058398 266.31993662 -467.78515625 271.93212891 C-488.1565343 283.46635613 -507.71161234 296.81658152 -523.94921875 313.82421875 C-526.57479728 316.41848714 -529.33843854 318.8114897 -532.12573242 321.22949219 C-535.48984096 324.1865238 -538.73783009 327.26314357 -541.9921875 330.33984375 C-548.6917089 336.64692456 -555.44522792 342.88796681 -562.2421875 349.08984375 C-586.6121348 371.04718944 -586.6121348 371.04718944 -610.0546875 393.96484375 C-611.89137812 395.7490575 -613.7618451 397.40086573 -615.70703125 399.0625 C-621.09536924 403.74470248 -626.10734483 408.80528467 -631.14233398 413.85961914 C-632.8014607 415.52410652 -634.46586801 417.18317822 -636.13085938 418.84179688 C-641.21272842 423.92081963 -646.20217238 429.03293056 -650.87084961 434.50024414 C-652.56688 436.46621421 -654.3748549 438.28690193 -656.2421875 440.08984375 C-659.43480062 443.23964405 -662.41380029 446.50203864 -665.3359375 449.90234375 C-667.55164398 452.44495774 -669.83317342 454.92094573 -672.1171875 457.40234375 C-676.56405227 462.28321184 -680.76647651 467.31359899 -684.90966797 472.45263672 C-686.42440354 474.31372443 -687.95890535 476.15741581 -689.49609375 478 C-697.39142152 487.47658952 -704.9906317 497.11139325 -712.2421875 507.08984375 C-712.72896973 507.75951172 -713.21575195 508.42917969 -713.71728516 509.11914062 C-732.9716034 535.73894931 -749.50702653 563.74079886 -764.2421875 593.08984375 C-764.67515137 593.94642578 -765.10811523 594.80300781 -765.55419922 595.68554688 C-781.00448438 626.44594967 -792.09812166 659.7127795 -800.5546875 693.02734375 C-800.84727951 694.16073181 -800.84727951 694.16073181 -801.14578247 695.3170166 C-809.76582111 728.9821156 -813.32522979 763.39361752 -816.96898127 797.86752748 C-817.65939932 804.36987508 -818.36495145 810.87057927 -819.06930542 817.37142944 C-820.24754463 828.25795799 -821.4188301 839.14521419 -822.58349609 850.03320312 C-822.69346669 851.06123065 -822.69346669 851.06123065 -822.80565892 852.1100264 C-823.2517432 856.280546 -823.69762214 860.45108752 -824.14343262 864.62163639 C-824.81586446 870.91217747 -825.48850876 877.20269576 -826.16162109 883.49316406 C-826.23544503 884.18310296 -826.30926896 884.87304187 -826.38532998 885.58388801 C-827.62058176 897.12559275 -828.86479112 908.66631483 -830.1149987 920.20640886 C-830.94854097 927.90650412 -831.77127741 935.60765041 -832.58541512 943.30982041 C-833.09425537 948.10230206 -833.61244715 952.89374016 -834.13307953 957.68495369 C-834.37080053 959.89026693 -834.60471648 962.09599451 -834.8343544 964.30216408 C-836.58322054 981.07494596 -838.85651555 996.6369001 -846.6171875 1011.83984375 C-847.10324463 1012.82500977 -847.58930176 1013.81017578 -848.09008789 1014.82519531 C-850.07957111 1018.84605961 -852.11459798 1022.8432909 -854.15234375 1026.83984375 C-864.45015387 1047.06674444 -864.65784141 1063.55759382 -861.38452148 1085.76123047 C-861.09985531 1087.7357388 -860.81518965 1089.71024721 -860.53054345 1091.68475842 C-860.22814984 1093.77564998 -859.92330798 1095.86617106 -859.61773491 1097.95660019 C-858.97771555 1102.33615269 -858.34561153 1106.7168265 -857.71461487 1111.09768677 C-856.14778028 1121.96715438 -854.56997242 1132.83502591 -852.99157715 1143.70281982 C-851.76109878 1152.17630409 -850.53334277 1160.65016614 -849.31314331 1169.12513745 C-848.68669268 1173.47402979 -848.05490816 1177.82210232 -847.4189471 1182.1696136 C-847.11956637 1184.22225757 -846.8227876 1186.27525773 -846.52716064 1188.32844543 C-846.16801023 1190.8228004 -845.80486617 1193.31658517 -845.43684387 1195.80964661 C-844.60509339 1201.63652642 -844.04313048 1207.20372852 -844.2421875 1213.08984375 C-844.7990625 1212.66832031 -845.3559375 1212.24679687 -845.9296875 1211.8125 C-851.12768657 1208.08082837 -854.77113655 1205.9819929 -861.2421875 1206.08984375 C-865.47222402 1207.78185836 -867.26737616 1210.04148051 -869.2421875 1214.08984375 C-871.53516638 1222.16440508 -870.25628258 1227.87857028 -866.9921875 1235.33984375 C-866.69248047 1236.02530273 -866.39277344 1236.71076172 -866.08398438 1237.41699219 C-863.67430524 1242.65842801 -861.1391543 1246.82519921 -856.2421875 1250.08984375 C-852.05862857 1250.56345419 -849.80137408 1250.3858837 -846.0546875 1248.40234375 C-843.33681971 1246.16765245 -841.39225447 1243.85421557 -839.2421875 1241.08984375 C-838.5821875 1241.08984375 -837.9221875 1241.08984375 -837.2421875 1241.08984375 C-830.61503146 1254.19726278 -824.7032023 1267.50953873 -819.24609375 1281.13671875 C-818.94454754 1281.88970749 -818.64300133 1282.64269623 -818.33231735 1283.41850281 C-816.46082925 1288.09961353 -814.60005739 1292.78493358 -812.74304199 1297.47180176 C-787.41168537 1362.8212021 -787.41168537 1362.8212021 -747.3515625 1419.765625 C-745.49592093 1421.8102671 -743.67462374 1423.87768524 -741.8671875 1425.96484375 C-738.45400659 1429.88368109 -734.94246612 1433.7098691 -731.42358398 1437.53344727 C-728.56923923 1440.63637588 -725.7388919 1443.75833659 -722.9296875 1446.90234375 C-714.13128754 1456.68879932 -705.18815804 1466.33306648 -695.76855469 1475.52661133 C-693.0516678 1478.19679339 -690.48275879 1480.9345795 -688.00146484 1483.82617188 C-684.50103256 1487.84358085 -680.83149788 1491.64572665 -677.05859375 1495.40625 C-676.39939438 1496.0664061 -675.74019501 1496.72656219 -675.0610199 1497.40672302 C-673.67821915 1498.79019881 -672.29417674 1500.17243458 -670.90893555 1501.5534668 C-668.80988407 1503.64716044 -666.7162281 1505.74614249 -664.62304688 1507.84570312 C-663.26854964 1509.19953946 -661.91374219 1510.5530655 -660.55859375 1511.90625 C-659.94375626 1512.52311172 -659.32891876 1513.13997345 -658.69544983 1513.77552795 C-654.94635355 1517.50484375 -651.06952884 1521.02595575 -647.06993103 1524.48448181 C-644.73826783 1526.53245151 -642.54421814 1528.69141471 -640.3671875 1530.90234375 C-639.10648438 1532.17464844 -639.10648438 1532.17464844 -637.8203125 1533.47265625 C-636.1015625 1535.21744792 -634.3828125 1536.96223958 -632.6640625 1538.70703125 C-628.24769311 1543.16404208 -623.77883991 1547.45494048 -619.015625 1551.5390625 C-616.46025264 1553.77360618 -614.1140175 1556.16086122 -611.7421875 1558.58984375 C-608.01216127 1562.37664948 -604.17984671 1565.96381684 -600.13671875 1569.4140625 C-597.45757204 1571.78386444 -594.97577097 1574.33006087 -592.4921875 1576.90234375 C-590.54147181 1578.79887289 -588.54969738 1580.58455417 -586.49609375 1582.3671875 C-582.2872622 1586.02353088 -578.22469586 1589.81652718 -574.1796875 1593.65234375 C-572.68382972 1595.06535402 -571.18773133 1596.4781096 -569.69140625 1597.890625 C-568.94681152 1598.59396973 -568.2022168 1599.29731445 -567.43505859 1600.02197266 C-559.05957708 1607.92002748 -550.62211734 1615.75184069 -542.15527344 1623.55175781 C-537.35963299 1627.972876 -532.59326225 1632.42496163 -527.828125 1636.87890625 C-523.81248736 1640.63013977 -519.78380698 1644.36662851 -515.7421875 1648.08984375 C-509.21030431 1654.10902968 -502.71418121 1660.16600248 -496.22753906 1666.23388672 C-494.15850819 1668.16806929 -492.08712693 1670.09971442 -490.015625 1672.03125 C-483.95371182 1677.69066612 -477.90806833 1683.34092262 -472.10098267 1689.26376343 C-470.29498806 1691.03797248 -468.43004039 1692.68668725 -466.50537109 1694.33056641 C-462.33045372 1697.96200766 -458.41767424 1701.80242256 -454.53125 1705.73828125 C-453.83703949 1706.43627838 -453.14282898 1707.13427551 -452.42758179 1707.85342407 C-450.23830881 1710.05478924 -448.05235014 1712.25939894 -445.8671875 1714.46484375 C-442.96639472 1717.39217395 -440.06233836 1720.31620926 -437.15625 1723.23828125 C-436.49170807 1723.91112152 -435.82716614 1724.58396179 -435.14248657 1725.27719116 C-434.5277951 1725.89518585 -433.91310364 1726.51318054 -433.27978516 1727.14990234 C-432.73987946 1727.69504486 -432.19997375 1728.24018738 -431.64370728 1728.80184937 C-429.71886748 1730.570774 -428.68358331 1731.09828776 -426.04711914 1731.04785156 C-419.14766931 1730.39828662 -412.45121451 1729.30420352 -405.6796875 1727.83984375 C-404.71611328 1727.64777344 -403.75253906 1727.45570312 -402.75976562 1727.2578125 C-393.81139168 1725.3390108 -385.22274838 1722.33900846 -379.2421875 1715.08984375 C-378.6853125 1714.16171875 -378.1284375 1713.23359375 -377.5546875 1712.27734375 C-376.905 1711.19453125 -376.905 1711.19453125 -376.2421875 1710.08984375 C-375.5821875 1710.08984375 -374.9221875 1710.08984375 -374.2421875 1710.08984375 C-372.31990104 1718.13387323 -371.47893976 1723.96687016 -375.47265625 1731.37109375 C-380.55667908 1739.54914656 -386.56851389 1744.13343123 -395.2421875 1748.08984375 C-390.56145438 1752.19782894 -385.27629263 1755.06754629 -379.8671875 1758.08984375 C-378.85132568 1758.65872314 -377.83546387 1759.22760254 -376.78881836 1759.8137207 C-373.61232236 1761.58301061 -370.42917821 1763.33953447 -367.2421875 1765.08984375 C-365.7878833 1765.88914307 -365.7878833 1765.88914307 -364.30419922 1766.70458984 C-317.69180996 1792.13316303 -268.11910533 1805.12585219 -215.35336304 1809.18450928 C-138.81806026 1815.12592185 -60.49684234 1825.41211309 13.52197266 1846.50244141 C23.09328402 1849.09012493 30.94048299 1846.92482536 40.3203125 1844.40234375 C68.34552991 1837.17556321 97.14073949 1832.61637272 125.98046875 1830.3203125 C126.75148926 1830.25777786 127.52250977 1830.19524323 128.31689453 1830.1308136 C132.05753497 1829.82979418 135.79772096 1829.54854931 139.54248047 1829.30395508 C151.24678893 1828.4671287 158.41886696 1825.41184022 166.7578125 1817.08984375 C167.8744661 1815.78795089 168.9786856 1814.47529159 170.0703125 1813.15234375 C174.90246419 1807.45174083 181.32648722 1801.7133207 188.7578125 1800.08984375 C188.81316162 1799.3534668 188.86851074 1798.61708984 188.92553711 1797.85839844 C189.17857608 1794.51859998 189.43688583 1791.17922946 189.6953125 1787.83984375 C189.78232422 1786.68097656 189.86933594 1785.52210937 189.95898438 1784.328125 C190.04599609 1783.21308594 190.13300781 1782.09804687 190.22265625 1780.94921875 C190.3012085 1779.92280273 190.37976074 1778.89638672 190.46069336 1777.83886719 C190.71451451 1775.49044802 191.11070421 1773.35590793 191.7578125 1771.08984375 C192.4178125 1771.08984375 193.0778125 1771.08984375 193.7578125 1771.08984375 C195.07884336 1772.81077851 196.1926084 1774.6228243 197.34375 1776.4609375 C199.04927052 1778.42558407 200.22802592 1778.7076845 202.7578125 1779.08984375 C203.53035169 1768.57472705 201.32371588 1758.70569832 196.4453125 1749.33984375 C195.61 1747.73109375 195.61 1747.73109375 194.7578125 1746.08984375 C195.0878125 1745.42984375 195.4178125 1744.76984375 195.7578125 1744.08984375 C209.00960331 1756.51909216 219.23943062 1769.67595805 228.7578125 1785.08984375 C229.93449956 1783.32481316 231.10786556 1781.55754657 232.2734375 1779.78515625 C240.28135104 1767.91757267 240.28135104 1767.91757267 246.3828125 1766.46484375 C249.83479667 1767.37326064 250.87613604 1769.13292359 252.7578125 1772.08984375 C253.12908956 1773.41311327 253.47062687 1774.74581499 253.7578125 1776.08984375 C253.93171509 1774.93198364 253.93171509 1774.93198364 254.10913086 1773.75073242 C254.63511078 1770.25918254 255.16516242 1766.76826277 255.6953125 1763.27734375 C255.96891602 1761.45493164 255.96891602 1761.45493164 256.24804688 1759.59570312 C256.42529297 1758.43232422 256.60253906 1757.26894531 256.78515625 1756.0703125 C257.02866821 1754.45999146 257.02866821 1754.45999146 257.27709961 1752.81713867 C257.7578125 1750.08984375 257.7578125 1750.08984375 258.7578125 1747.08984375 C261.05859375 1746.796875 261.05859375 1746.796875 263.7578125 1747.08984375 C265.48828125 1749.1015625 265.48828125 1749.1015625 266.9453125 1751.77734375 C267.43386719 1752.64746094 267.92242188 1753.51757812 268.42578125 1754.4140625 C269.68004716 1756.93362892 270.75807725 1759.46020837 271.7578125 1762.08984375 C273.72279872 1761.55819818 273.72279872 1761.55819818 275.7578125 1760.08984375 C277.37758701 1756.94850163 277.37758701 1756.94850163 278.6953125 1753.27734375 C280.96340377 1747.28174872 283.36678629 1743.01448025 289.0703125 1739.77734375 C293.83182608 1738.55928214 298.33133716 1738.87851407 303.1328125 1739.58984375 C310.08919713 1740.54934508 316.85388383 1740.290527 323.7578125 1739.08984375 C323.60183594 1739.62351562 323.44585938 1740.1571875 323.28515625 1740.70703125 C321.59178417 1747.18894559 320.61574877 1754.23142613 323.99609375 1760.3203125 C326.25090538 1762.5851233 327.58517266 1762.92311343 330.7578125 1763.08984375 C338.11383861 1761.01860773 343.52338373 1755.87475053 348.9375 1750.73828125 C351.82422059 1748.02748269 354.76996268 1745.48954582 357.8203125 1742.96484375 C359.16802734 1741.84722656 359.16802734 1741.84722656 360.54296875 1740.70703125 C362.7578125 1739.08984375 362.7578125 1739.08984375 364.7578125 1739.08984375 C365.86208679 1740.90741954 366.89039114 1742.77135908 367.8828125 1744.65234375 C371.61584393 1751.2395888 375.67599322 1755.61926892 382.1328125 1759.52734375 C396.90625014 1762.69308039 409.59263034 1755.13153425 421.61328125 1747.44921875 C430.30618825 1741.79942125 438.92888411 1736.04481939 447.53425598 1730.26296997 C453.06774228 1726.54729958 458.61472034 1722.85209371 464.1640625 1719.16015625 C466.01302581 1717.92961359 467.86198411 1716.69906341 469.7109375 1715.46850586 C472.4456777 1713.6485054 475.18055581 1711.82871487 477.91601562 1710.00979614 C494.18956442 1699.18647673 510.34908554 1688.20308411 526.3828125 1677.02734375 C527.34662842 1676.35598389 528.31044434 1675.68462402 529.3034668 1674.99291992 C542.44590638 1665.83039442 555.51143108 1656.57135326 568.48828125 1647.17578125 C572.23396755 1644.46514209 575.99226475 1641.77279652 579.7578125 1639.08984375 C593.72109543 1629.13169041 607.58299737 1619.0403952 621.37548828 1608.84716797 C623.727443 1607.11224585 626.08366089 1605.38329231 628.44140625 1603.65625 C637.67542035 1596.88643648 646.82346992 1590.01596177 655.91479492 1583.05566406 C661.7111962 1578.62579824 667.55722264 1574.27190052 673.4453125 1569.96484375 C680.46094613 1564.82960668 687.35578583 1559.55993156 694.19995117 1554.19873047 C699.00923327 1550.43549492 703.86032488 1546.73742639 708.7578125 1543.08984375 C716.08556895 1537.62879848 723.30070792 1532.03014163 730.50390625 1526.40625 C734.15809713 1523.55342391 737.8281914 1520.72225091 741.5078125 1517.90234375 C746.42174621 1514.1294733 751.30199991 1510.31671705 756.16796875 1506.48242188 C761.86778048 1501.994134 767.59662044 1497.5434746 773.33300781 1493.10205078 C778.26999061 1489.27273808 783.13274212 1485.37517645 787.91015625 1481.34765625 C789.7578125 1480.08984375 789.7578125 1480.08984375 792.7578125 1480.08984375 C792.0978125 1489.65984375 791.4378125 1499.22984375 790.7578125 1509.08984375 C791.54027344 1506.51429687 792.32273437 1503.93875 793.12890625 1501.28515625 C793.88637229 1498.79625616 794.64445006 1496.30754318 795.40258789 1493.81884766 C795.92992154 1492.08662077 796.45661712 1490.35419951 796.98266602 1488.62158203 C797.7380755 1486.13392817 798.49576264 1483.64697801 799.25390625 1481.16015625 C799.48935654 1480.38302277 799.72480682 1479.60588928 799.96739197 1478.8052063 C801.64394079 1473.31758716 801.64394079 1473.31758716 802.7578125 1471.08984375 C804.98475964 1472.16207756 807.01761894 1473.26538864 809.0703125 1474.65234375 C812.44730557 1476.45864237 814.92620488 1476.95771935 818.7578125 1477.08984375 C829.09969084 1473.82398743 833.6860632 1466.67561861 839.27438354 1457.97268677 C841.24964237 1454.90192095 843.26072761 1451.85489818 845.2734375 1448.80859375 C845.66534775 1448.21490494 846.057258 1447.62121613 846.46104431 1447.00953674 C853.87698154 1435.82960033 862.45680634 1425.74677687 871.7578125 1416.08984375 C872.38993652 1415.43048828 873.02206055 1414.77113281 873.67333984 1414.09179688 C885.75954788 1401.55117714 898.31228361 1390.84223998 912.7578125 1381.08984375 C913.4178125 1381.41984375 914.0778125 1381.74984375 914.7578125 1382.08984375 C901.64089743 1417.74482998 886.9379092 1452.71924132 870.7578125 1487.08984375 C870.44865906 1487.74833313 870.13950562 1488.40682251 869.82098389 1489.08526611 C862.4312266 1504.82091904 854.68805105 1520.30094167 846.20361328 1535.47900391 C844.75754032 1538.09033525 843.3447049 1540.71702648 841.94140625 1543.3515625 C833.78758633 1558.62007216 824.86216961 1573.376952 815.7578125 1588.08984375 C815.18998047 1589.00991211 814.62214844 1589.92998047 814.03710938 1590.87792969 C799.86005165 1613.7948712 784.35757767 1635.86434784 767.7578125 1657.08984375 C766.8772206 1658.22887023 765.99702257 1659.36820131 765.1171875 1660.5078125 C759.94852235 1667.17565046 754.62077074 1673.66866937 749.1003418 1680.04833984 C745.33042369 1684.40564243 741.66741564 1688.83950065 738.03515625 1693.3125 C735.0215212 1696.98779077 731.94368643 1700.60658438 728.86547852 1704.2277832 C724.99764244 1708.7861822 721.20639152 1713.40226958 717.4375 1718.04296875 C715.7578125 1720.08984375 715.7578125 1720.08984375 714.7578125 1721.08984375 C714.54354709 1723.01398958 714.33584013 1724.93911558 714.16308594 1726.86743164 C712.70553189 1742.99693385 709.47295362 1756.20680676 697.2734375 1767.58203125 C688.73909977 1772.69733305 679.3776479 1772.55203342 669.6953125 1772.65234375 C655.53996488 1772.84033902 645.11001073 1773.61262879 633.6953125 1782.46484375 C631.56626209 1784.98017124 631.56626209 1784.98017124 631.0703125 1788.15234375 C631.93982751 1793.13229334 633.96889033 1796.98660339 636.34765625 1801.41796875 C637.7578125 1804.08984375 637.7578125 1804.08984375 638.7578125 1807.08984375 C633.83972489 1805.30792795 629.81587677 1802.62271781 625.4765625 1799.74609375 C615.41924054 1793.61921946 605.84586055 1795.03896491 594.82592773 1797.5743103 C589.43445948 1798.91827904 584.17334144 1800.68213885 578.91870117 1802.47875977 C576.90464511 1803.1662249 574.88547278 1803.83680523 572.86523438 1804.50585938 C566.28863978 1806.38421399 566.28863978 1806.38421399 560.7578125 1810.08984375 C560.7578125 1815.42639661 564.39887513 1819.28559272 567.7578125 1823.08984375 C569.17307621 1824.42067411 570.58896308 1825.75089681 572.01464844 1827.07055664 C583.93093105 1838.22944841 591.39127959 1853.41919994 592.70703125 1869.75 C592.77725736 1872.98580311 592.37861679 1875.91684407 591.7578125 1879.08984375 C587.60556398 1877.49962091 585.07995027 1874.45203273 582.1953125 1871.21484375 C581.13022547 1870.03904698 580.06512089 1868.8632661 579 1867.6875 C578.46213867 1867.08953613 577.92427734 1866.49157227 577.37011719 1865.87548828 C575.82523617 1864.16451618 574.26767615 1862.46642195 572.703125 1860.7734375 C572.21787354 1860.2479834 571.73262207 1859.7225293 571.23266602 1859.18115234 C570.53355103 1858.42439209 570.53355103 1858.42439209 569.8203125 1857.65234375 C566.34600475 1853.88458014 563.01404869 1850.04509308 559.7578125 1846.08984375 C554.92226058 1847.43913049 551.19801047 1849.57703031 547.1953125 1852.52734375 C546.58526367 1852.97271484 545.97521484 1853.41808594 545.34667969 1853.87695312 C529.88945854 1865.30011914 515.92849886 1878.67009024 503.37939453 1893.22094727 C500.94379392 1896.0280118 498.41537159 1898.74546002 495.8828125 1901.46484375 C492.43663678 1905.17398494 489.03146773 1908.90590005 485.6953125 1912.71484375 C482.64014461 1916.16605192 479.44032806 1919.38650139 476.1171875 1922.58203125 C474.84693726 1923.81445557 474.84693726 1923.81445557 473.55102539 1925.07177734 C471.84968704 1926.715889 470.13577488 1928.34711545 468.40795898 1929.96337891 C461.04991089 1937.09499126 457.72299659 1942.86383776 457.39457703 1953.24871826 C457.3481295 1957.0730966 457.42339789 1960.8914988 457.5078125 1964.71484375 C457.52791642 1966.3072691 457.54616029 1967.89971908 457.5625 1969.4921875 C457.60616956 1973.35869064 457.67497732 1977.22398951 457.7578125 1981.08984375 C456.53263916 1981.0741333 455.30746582 1981.05842285 454.04516602 1981.04223633 C449.46613227 1980.98761954 444.88712689 1980.95337886 440.30786133 1980.92504883 C438.33222601 1980.91003419 436.35662361 1980.88961624 434.38110352 1980.86352539 C431.52872555 1980.82681803 428.67679121 1980.81004382 425.82421875 1980.796875 C424.95197159 1980.78139114 424.07972443 1980.76590729 423.18104553 1980.74995422 C416.10935062 1980.74804704 410.14245192 1982.20948851 403.9453125 1985.65234375 C395.44548484 1995.12358029 396.61703105 2008.73923705 396.6953125 2020.58984375 C396.69982422 2021.88921875 396.70433594 2023.18859375 396.70898438 2024.52734375 C396.7207033 2027.714892 396.73711031 2030.9023433 396.7578125 2034.08984375 C395.33214344 2033.79873657 393.90793917 2033.50045076 392.484375 2033.19921875 C391.69111816 2033.03389648 390.89786133 2032.86857422 390.08056641 2032.69824219 C380.05608629 2030.07253224 373.18961586 2021.7585922 367.3828125 2013.71484375 C359.71269664 2002.90532541 359.71269664 2002.90532541 348.7578125 1996.08984375 C342.06640462 1995.59308175 335.81382479 1996.40512967 329.296875 1997.84765625 C328.42622406 1998.03319061 327.55557312 1998.21872498 326.65853882 1998.40988159 C324.82385848 1998.80344446 322.99025224 1999.20204545 321.15771484 1999.60546875 C318.42691078 2000.20515966 315.69253595 2000.78546206 312.95703125 2001.36328125 C303.86116681 2003.31484152 294.87358006 2005.50656926 285.953125 2008.15234375 C284.75763535 2008.50439377 284.75763535 2008.50439377 283.53799438 2008.86355591 C275.92519129 2011.19178182 268.8315398 2014.46723795 261.7578125 2018.08984375 C261.98404297 2019.41628906 261.98404297 2019.41628906 262.21484375 2020.76953125 C262.67495443 2023.58315772 263.10374727 2026.38473182 263.4453125 2029.21484375 C263.55230469 2030.04242187 263.65929688 2030.87 263.76953125 2031.72265625 C263.75584267 2034.48774843 263.33641424 2035.82637171 261.7578125 2038.08984375 C258.39878457 2040.52092104 255.17904832 2040.32668809 251.1328125 2040.27734375 C249.41191406 2040.26767578 249.41191406 2040.26767578 247.65625 2040.2578125 C246.36976562 2040.20238281 245.08328125 2040.14695312 243.7578125 2040.08984375 C243.01281494 2040.09250244 242.26781738 2040.09516113 241.50024414 2040.09790039 C233.56339123 2039.81685825 228.06528247 2036.26599785 221.4453125 2032.15234375 C219.14382735 2030.76786946 216.83248099 2029.40037248 214.51953125 2028.03515625 C213.94564667 2027.69497971 213.37176208 2027.35480316 212.78048706 2027.00431824 C198.92229362 2018.84085259 184.24988194 2012.41295352 168.7578125 2008.08984375 C167.54351563 2007.75082031 166.32921875 2007.41179687 165.078125 2007.0625 C149.01807298 2003.24955548 129.40555474 2002.9126086 113.9140625 2009.25390625 C105.75933592 2011.41369769 97.01768101 2007.98010189 89.12002563 2005.88070679 C48.48133569 1995.15727193 7.03663807 1991.85888566 -34.8671875 1991.83984375 C-35.53505783 1991.83940189 -36.20292816 1991.83896004 -36.89103699 1991.83850479 C-86.67870911 1991.82131407 -136.24659664 1996.22729929 -185.56811523 2002.92163086 C-191.86254852 2003.76080126 -197.89130025 2004.27304242 -204.2421875 2004.08984375 C-204.23695068 2003.3534668 -204.23171387 2002.61708984 -204.22631836 2001.85839844 C-204.20551883 1998.5188889 -204.19251782 1995.17939301 -204.1796875 1991.83984375 C-204.17130859 1990.68097656 -204.16292969 1989.52210937 -204.15429688 1988.328125 C-204.15107422 1987.21308594 -204.14785156 1986.09804687 -204.14453125 1984.94921875 C-204.13929443 1983.92280273 -204.13405762 1982.89638672 -204.12866211 1981.83886719 C-204.22881799 1979.41358719 -204.54295672 1977.40287014 -205.2421875 1975.08984375 C-205.9021875 1975.08984375 -206.5621875 1975.08984375 -207.2421875 1975.08984375 C-207.8403125 1975.87359375 -208.4384375 1976.65734375 -209.0546875 1977.46484375 C-212.22020187 1981.263461 -216.07202017 1982.44856993 -220.9296875 1982.96484375 C-228.66976024 1982.79010107 -233.99889842 1978.00719858 -240.06640625 1973.69921875 C-269.11070535 1953.11000033 -301.99077427 1937.50568958 -333.65753174 1921.40466309 C-339.72923574 1918.31597563 -345.79717704 1915.21995479 -351.86157227 1912.11694336 C-355.21060281 1910.40336162 -358.56428108 1908.69941591 -361.92163086 1907.00219727 C-368.49399543 1903.66632884 -374.99996961 1900.36134822 -381.21875 1896.390625 C-392.68312104 1889.09268557 -401.2525127 1888.25129548 -414.79296875 1888.875 C-439.25324914 1889.9830329 -464.58112694 1881.93135277 -486.2421875 1871.08984375 C-488.00949219 1870.22552734 -488.00949219 1870.22552734 -489.8125 1869.34375 C-499.35676658 1864.45880032 -507.81230835 1858.37141822 -515.6171875 1851.02734375 C-533.71413991 1834.59936887 -557.9942693 1830.01983426 -581.62109375 1829.87890625 C-583.58538389 1829.85801372 -585.54967401 1829.83710328 -587.51395321 1829.81520653 C-592.31432953 1829.76254426 -597.1147078 1829.71805594 -601.9152832 1829.68847656 C-631.6389553 1829.49490633 -631.6389553 1829.49490633 -643.2421875 1826.08984375 C-644.02134521 1825.86586914 -644.80050293 1825.64189453 -645.60327148 1825.41113281 C-683.82221468 1813.32515197 -712.61516795 1784.81081888 -730.9921875 1749.83984375 C-744.58407245 1723.30501797 -752.0743552 1695.14128999 -757.64599609 1665.97607422 C-760.12938542 1653.07803445 -765.10102077 1641.80660233 -775.2421875 1633.08984375 C-781.86273422 1628.80698678 -787.52481935 1626.96932577 -795.2421875 1626.08984375 C-795.76051147 1624.54889038 -795.76051147 1624.54889038 -796.28930664 1622.97680664 C-822.02827854 1546.56932061 -853.19096996 1472.84421067 -886.20068359 1399.32739258 C-898.13310852 1372.74894408 -909.98341855 1346.1357104 -921.55886841 1319.3994751 C-922.49756223 1317.23196717 -923.43767409 1315.06507268 -924.37936401 1312.89886475 C-929.01441345 1302.22891382 -933.55372753 1291.53467782 -937.73046875 1280.67578125 C-938.2131723 1279.42970093 -938.2131723 1279.42970093 -938.70562744 1278.15844727 C-946.46095919 1257.65324805 -947.32336657 1236.47135821 -947.3671875 1214.77734375 C-947.37407593 1212.88326782 -947.37407593 1212.88326782 -947.38110352 1210.95092773 C-947.36853312 1203.28046994 -947.01797975 1195.72141282 -946.2421875 1188.08984375 C-945.0871875 1188.41984375 -943.9321875 1188.74984375 -942.7421875 1189.08984375 C-937.17743294 1190.45645309 -932.47454607 1190.84800327 -926.9296875 1188.96484375 C-923.48096027 1186.55875498 -922.53448769 1185.11033324 -921.2421875 1181.08984375 C-920.48791566 1172.38428964 -922.0137518 1163.92775809 -923.6171875 1155.40234375 C-923.74745331 1154.69965363 -923.87771912 1153.9969635 -924.01193237 1153.27297974 C-932.1114494 1109.9253299 -944.92630363 1067.63772766 -962.2421875 1027.08984375 C-962.71446777 1025.97996094 -963.18674805 1024.87007812 -963.67333984 1023.7265625 C-974.84059907 997.66324374 -987.38590762 972.17932549 -1000.5703125 947.08203125 C-1001.25383789 945.77830566 -1001.25383789 945.77830566 -1001.95117188 944.44824219 C-1003.08952291 942.36872801 -1004.32095091 940.40284172 -1005.6015625 938.41015625 C-1008.79033349 931.95669116 -1007.05019495 924.93065679 -1005.74047852 918.11499023 C-1005.41245512 916.33482859 -1005.08457589 914.55464037 -1004.75682068 912.77442932 C-1004.5821118 911.83973879 -1004.40740292 910.90504826 -1004.22739983 909.94203377 C-1001.05257477 892.9028116 -998.18359424 875.83258366 -995.64453125 858.6875 C-995.50098835 857.72106945 -995.35744545 856.7546389 -995.20955276 855.75892258 C-994.04428004 847.90333158 -992.89474807 840.0454572 -991.74639893 832.18737793 C-988.62780303 810.86096975 -985.47579755 789.55877199 -981.55078125 768.36328125 C-981.41155684 767.61050966 -981.27233242 766.85773808 -981.12888908 766.08215523 C-970.11735543 706.87558149 -954.57668607 646.29139673 -918.2421875 597.08984375 C-917.82759277 596.52507324 -917.41299805 595.96030273 -916.98583984 595.37841797 C-904.23547144 578.12019042 -889.61391355 562.39791555 -874.4921875 547.21484375 C-873.69997803 546.41796143 -872.90776855 545.6210791 -872.09155273 544.80004883 C-867.92517719 540.64500561 -863.67992207 536.65700855 -859.22070312 532.81884766 C-855.67447354 529.71983508 -852.28158302 526.4575047 -848.8671875 523.21484375 C-843.53545201 518.17330207 -838.17364829 513.17985305 -832.69921875 508.29296875 C-825.03061707 501.41682988 -817.50239037 494.43290384 -810.27734375 487.08984375 C-808.37302743 485.21842349 -806.41028657 483.49437247 -804.3671875 481.77734375 C-799.38618987 477.49526081 -795.09792348 472.58943779 -790.71728516 467.71337891 C-789.23759091 466.08478461 -787.73513503 464.48096758 -786.22265625 462.8828125 C-769.73283469 445.42984988 -759.68046596 427.74120926 -752.1796875 404.96484375 C-743.01587596 377.19743733 -728.51208119 361.19768295 -708.0147593 340.72809005 C-705.51729163 338.23318978 -703.02230501 335.7358101 -700.52690125 333.23884583 C-696.34386379 329.05400063 -692.15874849 324.87124218 -687.97241211 320.68969727 C-683.15178289 315.87452225 -678.33478548 311.05573656 -673.51962978 306.23508853 C-669.35810933 302.06901399 -665.19462339 297.90491124 -661.02952069 293.74241811 C-658.55352813 291.26797389 -656.07819075 288.7928844 -653.60463905 286.31599998 C-650.84908143 283.55698741 -648.08940628 280.80211565 -645.3293457 278.04760742 C-644.5244722 277.24070969 -643.71959869 276.43381195 -642.89033508 275.60246277 C-638.72024332 271.44782724 -634.47670794 267.44927005 -629.99925518 263.62660694 C-627.10163042 261.09229189 -624.43124385 258.34154241 -621.7421875 255.58984375 C-617.79202077 251.59516016 -613.81622678 247.73142177 -609.53125 244.09375 C-606.1937337 241.17199938 -602.97602697 238.12542813 -599.7421875 235.08984375 C-594.65520712 230.32431552 -589.54565822 225.61482336 -584.2421875 221.08984375 C-583.20941694 220.20337947 -582.17688822 219.3166334 -581.14453125 218.4296875 C-579.36611946 216.90214176 -577.58647944 215.37613651 -575.80322266 213.85424805 C-572.72009351 211.22273795 -569.65205394 208.57720419 -566.61328125 205.89453125 C-548.29576026 189.78882402 -532.50907219 183.92967396 -508.2421875 185.08984375 C-503.2329349 185.50813582 -498.23876498 186.04213531 -493.2421875 186.58984375 C-477.16376679 188.34609734 -461.34582429 188.95693207 -445.2421875 187.08984375 C-445.1390625 186.09082031 -445.0359375 185.09179688 -444.9296875 184.0625 C-444.33552201 179.95388688 -442.93061632 176.30092837 -441.2421875 172.52734375 C-440.93531006 171.83624512 -440.62843262 171.14514648 -440.31225586 170.43310547 C-426.60013277 140.54989823 -400.50319322 116.25959533 -369.734375 104.78125 C-366.58885236 103.76620546 -363.44863957 102.8893528 -360.2421875 102.08984375 C-359.42492187 101.86554688 -358.60765625 101.64125 -357.765625 101.41015625 C-351.29494706 99.91060231 -344.78994926 99.88599635 -338.1796875 99.83984375 C-337.25744385 99.83049805 -336.3352002 99.82115234 -335.38500977 99.81152344 C-329.90105224 99.83692796 -324.87093049 100.39348707 -319.53344727 101.66723633 C-309.9619128 103.43264135 -302.15049011 99.43268495 -294.4375 94.1796875 C-291.30803986 91.89277432 -288.25829081 89.52283991 -285.2421875 87.08984375 C-284.7167334 86.66880371 -284.1912793 86.24776367 -283.64990234 85.81396484 C-274.87477439 78.71584955 -266.88668324 70.9085105 -258.98999023 62.85205078 C-252.83735966 56.58786259 -246.45007244 50.71972705 -239.5546875 45.27734375 C-238.84957031 44.71402344 -238.14445313 44.15070313 -237.41796875 43.5703125 C-232.38208798 40.14374371 -228.19416578 39.42851283 -222.2421875 40.08984375 C-219.74524159 42.23634111 -218.4179295 43.94395405 -217.91137695 47.24682617 C-217.81098662 49.81026363 -217.84479066 52.33845933 -217.9296875 54.90234375 C-217.94418945 56.19881836 -217.94418945 56.19881836 -217.95898438 57.52148438 C-218.02823299 61.51080673 -218.23487735 65.42645062 -218.7578125 69.3828125 C-219.16720852 72.51601271 -219.34845383 75.4386678 -219.3046875 78.58984375 C-219.29115234 79.87375 -219.29115234 79.87375 -219.27734375 81.18359375 C-219.26574219 81.81265625 -219.25414062 82.44171875 -219.2421875 83.08984375 C-218.74074219 82.6515625 -218.23929688 82.21328125 -217.72265625 81.76171875 C-204.56474431 70.73328148 -189.34759316 62.32296725 -174.28564453 54.19970703 C-172.44715846 53.20116967 -170.62297954 52.17639726 -168.80078125 51.1484375 C-134.6962005 32.21901203 -97.02166951 19.48209531 -60.50523376 6.12957764 C-54.6001518 3.96663887 -48.7127281 1.76196975 -42.8359375 -0.4765625 C-40.77594725 -1.25518907 -38.71549083 -2.03256471 -36.65478516 -2.80929565 C-34.79872327 -3.51370004 -32.94808435 -4.23234223 -31.09765625 -4.95141602 C-30.00066406 -5.36319092 -28.90367187 -5.77496582 -27.7734375 -6.19921875 C-26.37448242 -6.73603271 -26.37448242 -6.73603271 -24.94726562 -7.28369141 C-16.71763871 -9.18957793 -6.91552074 -4.07432487 0 0 Z M-848.2421875 1293.08984375 C-848.2421875 1296.59150297 -847.39949599 1297.98372459 -845.72265625 1301.02734375 C-845.19478516 1302.00574219 -844.66691406 1302.98414063 -844.12304688 1303.9921875 C-843.00998719 1306.02830361 -841.8929141 1308.06223184 -840.77148438 1310.09375 C-835.83871752 1319.26570679 -833.22799389 1327.93423731 -832.3046875 1338.27734375 C-831.66396562 1344.23640736 -830.70841231 1349.12240186 -827.2421875 1354.08984375 C-826.5615625 1355.10046875 -825.8809375 1356.11109375 -825.1796875 1357.15234375 C-820.16064866 1362.85721398 -812.24070597 1367.21865669 -805.2421875 1370.08984375 C-804.5821875 1369.75984375 -803.9221875 1369.42984375 -803.2421875 1369.08984375 C-803.68046875 1368.46464844 -804.11875 1367.83945313 -804.5703125 1367.1953125 C-812.40436828 1355.30092293 -817.61280631 1342.12372458 -823.2421875 1329.08984375 C-830.89815387 1308.62771768 -830.89815387 1308.62771768 -845.2421875 1293.08984375 C-846.2321875 1293.08984375 -847.2221875 1293.08984375 -848.2421875 1293.08984375 Z M-876.97265625 1299.3125 C-879.03318413 1302.19723903 -879.18573957 1304.59007188 -879.2421875 1308.08984375 C-877.58718406 1310.82147643 -877.58718406 1310.82147643 -874.9921875 1313.15234375 C-870.23409209 1317.9909711 -866.0397717 1323.02436346 -861.91113281 1328.40649414 C-859.81133575 1331.13134166 -857.70875328 1333.69403099 -855.2421875 1336.08984375 C-856.74630001 1328.62650285 -858.86865874 1321.39464479 -861.12841797 1314.13061523 C-861.74782944 1312.13415894 -862.35651984 1310.1346244 -862.96484375 1308.13476562 C-863.35873172 1306.86047806 -863.7532401 1305.58638207 -864.1484375 1304.3125 C-864.50228516 1303.16531494 -864.85613281 1302.01812988 -865.22070312 1300.83618164 C-866.06120242 1297.99333359 -866.06120242 1297.99333359 -868.2421875 1296.08984375 C-872.4877576 1296.08984375 -873.67836836 1296.8355291 -876.97265625 1299.3125 Z " fill="#FFFFFF" transform="translate(1007.2421875,108.91015625)"/>
<path d="M0 0 C1.97527597 -0.00453514 3.95054303 -0.01252 5.92580795 -0.02053452 C9.60557971 -0.03218447 13.28500531 -0.02899233 16.9647789 -0.02019882 C18.04653397 -0.02415161 19.12828903 -0.0281044 20.24282455 -0.03217697 C26.44409782 0.00573203 31.92618391 0.67200883 37.92962265 2.24542618 C40.06419113 43.43469211 23.60872313 85.38030387 10.22985458 123.69226456 C8.97642742 127.28683274 7.73169488 130.88440973 6.48626328 134.4817543 C5.08666135 138.52307766 3.68631135 142.5641256 2.27961349 146.60298538 C1.86835724 147.78380188 1.45710098 148.96461838 1.03338242 150.18121719 C0.67414185 151.2113443 0.31490128 152.24147141 -0.05522537 153.30281448 C-0.5577256 154.75940727 -0.5577256 154.75940727 -1.07037735 156.24542618 C-1.41696931 157.15346654 -1.76356127 158.0615069 -2.12065601 158.99706364 C-3.16099078 162.55535422 -3.30489936 165.45890343 -3.28107071 169.16183853 C-3.27946253 169.82657173 -3.27785435 170.49130493 -3.27619743 171.17618155 C-3.26823795 173.37212723 -3.24563689 175.56765601 -3.2227211 177.76349258 C-3.2135786 179.33267998 -3.20520734 180.90187204 -3.19755936 182.47106743 C-3.16973253 187.39602192 -3.120923 192.32066145 -3.07037735 197.24542618 C-3.0560095 198.77227773 -3.04178471 200.29913064 -3.02771378 201.82598495 C-2.93973997 211.16281359 -2.82379026 220.49918733 -2.70005417 229.83560181 C-2.5784911 239.03135763 -2.46931653 248.22727065 -2.35846329 257.42316055 C-2.34670232 258.39533201 -2.33494136 259.36750347 -2.322824 260.36913466 C-1.39572853 337.0887031 -0.8476784 413.80379818 -0.82471609 490.52917826 C-0.82220482 498.33212358 -0.81478018 506.13505255 -0.80524063 513.9379921 C-0.75276062 560.17994539 -1.00745797 606.39967305 -1.9961586 652.63214493 C-2.02729956 654.1014392 -2.02729956 654.1014392 -2.05906963 655.60041618 C-6.17332879 848.76813767 -6.17332879 848.76813767 -82.07037735 999.24542618 C-82.83736954 1000.22511368 -83.60436172 1001.20480118 -84.3945961 1002.21417618 C-90.83030386 1010.30342068 -97.93428705 1017.77757598 -105.07037735 1025.24542618 C-105.89924454 1026.11683243 -106.72811172 1026.98823868 -107.5820961 1027.88605118 C-112.18868403 1032.61669443 -117.07256008 1036.841002 -122.23443985 1040.95636368 C-124.05221263 1042.42360177 -125.84216321 1043.9264137 -127.59381485 1045.47198868 C-143.88347671 1059.75529922 -163.03755041 1071.02720177 -182.07037735 1081.24542618 C-182.93807755 1081.71287247 -183.80577774 1082.18031876 -184.69977188 1082.66193008 C-205.14868748 1093.56125097 -226.80243417 1101.8760732 -249.07037735 1108.24542618 C-249.92567032 1108.49244278 -250.78096329 1108.73945938 -251.66217422 1108.99396133 C-277.03715737 1116.22628956 -302.81244976 1120.03453678 -329.07037735 1122.24542618 C-329.89054337 1122.31745255 -330.71070938 1122.38947891 -331.55572891 1122.4636879 C-396.08426349 1127.91578506 -484.24205933 1124.5053049 -537.07037735 1084.24542618 C-540.11804196 1085.62536148 -542.75682287 1087.38900422 -545.48346329 1089.3164711 C-582.51279152 1115.22375427 -626.28093132 1126.40986261 -671.07037735 1126.43292618 C-672.35299454 1126.44517227 -673.63561172 1126.45741837 -674.9570961 1126.47003555 C-676.19072891 1126.47196915 -677.42436172 1126.47390274 -678.69537735 1126.47589493 C-679.80139297 1126.48000381 -680.9074086 1126.4841127 -682.04693985 1126.4883461 C-685.12852585 1126.2407542 -687.24993776 1125.44731974 -690.07037735 1124.24542618 C-694.51394859 1077.01789603 -696.9788888 1030.35435817 -696.13214493 982.92248917 C-696.05757291 978.48316997 -696.00849004 974.04384616 -695.96203995 969.60416031 C-695.04056677 884.33827894 -691.01366319 798.62265674 -675.51202774 714.65921402 C-675.08810098 712.3422926 -674.68075752 710.02294087 -674.27545547 707.70270157 C-674.02825771 706.34699634 -673.78026745 704.99143526 -673.53131485 703.63605118 C-673.32554825 702.48524063 -673.11978165 701.33443008 -672.90777969 700.14874649 C-671.4375553 695.05139709 -668.50470339 692.86722981 -664.07037735 690.24542618 C-663.04041641 689.61636368 -662.01045547 688.98730118 -660.9492836 688.33917618 C-623.70162887 666.64727683 -572.05531126 654.04613364 -529.19122696 654.22052383 C-528.0394043 654.22411911 -526.88758163 654.22771439 -525.70085526 654.23141861 C-524.83279755 654.23604111 -523.96473984 654.2406636 -523.07037735 654.24542618 C-523.05198303 654.94587051 -523.03358871 655.64631485 -523.01463699 656.36798477 C-521.73796991 706.87171227 -521.73796991 706.87171227 -518.07037735 757.24542618 C-518.00225845 757.95308121 -517.93413956 758.66073624 -517.86395645 759.38983536 C-514.05597742 798.672974 -507.533831 839.53679974 -490.07037735 875.24542618 C-489.71894669 875.96617325 -489.36751602 876.68692032 -489.00543594 877.42950821 C-473.61386832 908.2771633 -446.10296879 931.10760087 -413.63287735 942.12042618 C-398.60452988 946.99063342 -382.7290437 950.31355711 -366.89850235 950.48370743 C-366.14225571 950.49345596 -365.38600906 950.5032045 -364.60684586 950.51324844 C-348.72138684 950.67608646 -333.43868479 950.78614727 -318.07037735 946.24542618 C-317.40538223 946.06350723 -316.74038712 945.88158829 -316.05524063 945.69415665 C-288.75496188 938.16420547 -265.22760732 918.90141202 -250.07037735 895.24542618 C-249.37299454 894.15874649 -248.67561172 893.0720668 -247.9570961 891.95245743 C-210.9785532 832.99168734 -204.78416764 757.3985868 -203.52350235 689.38995743 C-203.50386492 688.39486538 -203.48422749 687.39977333 -203.46399498 686.37452698 C-202.85561311 655.21420373 -202.70691474 624.04667877 -202.52280855 592.88157558 C-202.50777209 590.35272386 -202.49243147 587.82387415 -202.47698975 585.29502487 C-202.16011906 533.36682078 -201.94200167 481.43835189 -201.89172214 429.50917447 C-201.88586633 423.85681341 -201.87506745 418.20447659 -201.86209488 412.55212784 C-192.97317349 301.29448517 -192.97317349 301.29448517 -220.07037735 201.24542618 C-222.36052636 199.16831429 -224.32190649 197.61966161 -227.07037735 196.24542618 C-227.07037735 195.58542618 -227.07037735 194.92542618 -227.07037735 194.24542618 C-227.59502579 194.15648087 -228.11967422 194.06753555 -228.6602211 193.97589493 C-231.26751637 193.1856774 -233.4360796 191.97808858 -235.7864418 190.61774063 C-257.28980313 178.27527183 -283.6358254 174.21151254 -308.07037735 172.24542618 C-309.11435684 172.16075089 -310.15833633 172.07607559 -311.23395157 171.98883438 C-318.26526445 171.46766569 -325.25670752 171.16259018 -332.30475235 171.06964493 C-333.08425751 171.05767075 -333.86376266 171.04569656 -334.66688919 171.03335953 C-337.87368002 170.98472147 -341.08003934 170.93695613 -344.28717422 170.91949844 C-346.66865521 170.90410502 -349.04865979 170.86406735 -351.42975235 170.81964493 C-352.15466873 170.82155334 -352.87958511 170.82346176 -353.62646866 170.82542801 C-356.8251217 170.74694507 -358.60439459 170.68653505 -360.97760391 168.44000626 C-375.3521671 139.5720553 -362.14783595 92.8058491 -353.57037735 63.93292618 C-353.2980629 63.00842667 -353.02574844 62.08392715 -352.74518204 61.13141251 C-350.31004861 53.25872056 -347.58962754 44.65507593 -341.07037735 39.24542618 C-338.67022901 38.11087561 -336.39751188 37.15333538 -333.9102211 36.26886368 C-333.20606567 36.01301498 -332.50191025 35.75716629 -331.77641678 35.49356461 C-323.8677592 32.7015158 -315.80713369 30.71047613 -307.63287735 28.87042618 C-306.8127919 28.68322006 -305.99270645 28.49601395 -305.14776993 28.30313492 C-207.92984415 6.25300563 -105.49804227 0.36937282 0 0 Z " fill="#00BBD3" transform="translate(1329.0703773498535,561.7545738220215)"/>
<path d="M0 0 C0.67011108 0.04323395 1.34022217 0.0864679 2.03063965 0.13101196 C89.40811618 5.91458826 180.23270329 47.07365481 271.25 110.25 C272.07298584 110.88373535 272.07298584 110.88373535 272.91259766 111.53027344 C285.12084753 120.95406485 296.85778905 130.85150216 308.25 141.25 C309.16007812 142.06726563 310.07015625 142.88453125 311.0078125 143.7265625 C321.23812022 152.97476068 331.55255649 162.49287926 340.41015625 173.0859375 C341.92295188 174.8653192 343.47061389 176.57797135 345.05859375 178.2890625 C353.82365538 187.86625261 360.67541906 198.24707599 367.44091797 209.30126953 C369.87015359 213.26082524 372.34025885 217.19420124 374.80908203 221.12915039 C376.69889485 224.14317341 378.58280886 227.16080246 380.46484375 230.1796875 C384.22188048 236.20605577 387.98537648 242.22836911 391.75 248.25 C393.00002926 250.24998171 394.25002926 252.24998172 395.5 254.25 C396.428125 255.735 396.428125 255.735 397.375 257.25 C439.25 324.25 481.125 391.25 523 458.25 C523.61907227 459.2404834 524.23814453 460.2309668 524.87597656 461.25146484 C526.12283846 463.24650885 527.36958372 465.24162575 528.61621094 467.23681641 C532.43386115 473.3464537 536.25601579 479.45324441 540.08129883 485.55810547 C541.96378876 488.56711914 543.83974066 491.58012917 545.71484375 494.59375 C547.97061273 498.2167448 550.25370072 501.81936676 552.56640625 505.40625 C553.56521108 506.97909878 554.56391544 508.55201136 555.5625 510.125 C556.23780762 511.14859619 556.23780762 511.14859619 556.92675781 512.19287109 C562.09498748 520.41395261 562.59356634 530.10025038 563.7746582 539.55981445 C563.91322235 540.64656967 564.0517865 541.73332489 564.19454956 542.85301208 C564.65057252 546.43928135 565.10103731 550.02621948 565.55078125 553.61328125 C565.87216539 556.16246061 566.19363419 558.7116293 566.5151825 561.26078796 C567.19110324 566.62770955 567.86392935 571.99500802 568.53491211 577.36254883 C569.20884538 582.75293949 569.88881233 588.14251863 570.57397461 593.53149414 C578.93330103 659.29782184 584.76718321 723.95497016 584.25 790.25 C585.85517085 789.50264484 587.45428542 788.74227411 589.05078125 787.9765625 C589.94192627 787.55455566 590.83307129 787.13254883 591.7512207 786.69775391 C595.77940158 784.36388849 597.84510053 781.1464628 600.25 777.25 C611.59605312 759.11157875 611.59605312 759.11157875 621.25 755.25 C622.24 755.25 623.23 755.25 624.25 755.25 C622.8048699 762.81616964 620.37936165 769.94061892 617.85507202 777.20050049 C596.30028476 839.55558166 589.71826494 905.863915 584.25 971.25 C583.59 970.92 582.93 970.59 582.25 970.25 C581.45439798 967.73888112 580.81535972 965.31607446 580.25 962.75 C579.98944824 961.56784912 579.98944824 961.56784912 579.72363281 960.36181641 C576.45479883 944.40095254 575.57046036 927.51276904 576.25 911.25 C576.30365723 909.83799316 576.30365723 909.83799316 576.35839844 908.39746094 C577.23948451 887.41217736 579.6910276 866.62479045 582.21728516 845.78417969 C582.35017944 844.67874817 582.48307373 843.57331665 582.61999512 842.43438721 C582.8715115 840.3489071 583.12673867 838.26386989 583.38635254 836.17938232 C583.99265214 831.15942349 584.3894829 826.3064746 584.25 821.25 C583.81429687 821.78109375 583.37859375 822.3121875 582.9296875 822.859375 C574.62730871 832.70721824 574.62730871 832.70721824 567.75 833.8125 C563.37229966 833.10894102 560.95406439 831.65743374 558.25 828.25 C553.83889582 821.4507184 553.73765248 813.96926065 553.66479492 806.11474609 C553.56610218 800.74784587 552.94428553 796.94892748 550.25 792.25 C547.88062271 790.21638717 547.88062271 790.21638717 545 788.6875 C507.26195809 765.11264573 483.51479312 718.74778302 464.25 680.25 C463.90727051 679.6115918 463.56454102 678.97318359 463.21142578 678.31542969 C459.55485851 670.99402704 462.59815482 663.51468402 464.6875 656.125 C471.6153154 630.46605724 471.93943688 603.04448542 459.53515625 578.9140625 C452.59564982 566.96505551 443.90586352 557.67204251 432.25 550.25 C415.97553686 539.54419786 401.70558692 527.51245061 393.3984375 509.46875 C393.05749054 508.73514252 392.71654358 508.00153503 392.36526489 507.24569702 C388.56353115 498.93811513 385.30896632 490.43430324 382.125 481.875 C381.82151642 481.06373657 381.51803284 480.25247314 381.20535278 479.41662598 C369.01358649 446.79991153 360.93462567 415.39296788 364.25 380.25 C363.70698242 380.52150879 363.16396484 380.79301758 362.60449219 381.07275391 C361.84297852 381.45351074 361.08146484 381.83426758 360.296875 382.2265625 C359.03544678 382.85763916 359.03544678 382.85763916 357.74853516 383.50146484 C355.90523873 384.42262186 354.06115271 385.34220045 352.21630859 386.26025391 C348.37146675 388.17556102 344.53766102 390.09752044 340.7421875 392.109375 C328.65388011 398.49937945 315.03903602 403.1534422 301.45703125 399.125 C296.41130017 397.10131427 292.18917064 393.99037709 287.8125 390.8125 C286.94286621 390.19213867 286.07323242 389.57177734 285.17724609 388.93261719 C283.39161166 387.65851125 281.60839714 386.38100694 279.82763672 385.10009766 C276.72952146 382.87642675 273.61236023 380.68083506 270.4921875 378.48828125 C259.41386204 370.70074989 248.4072878 362.81444676 237.4375 354.875 C231.56860353 350.6276823 225.67575761 346.41760366 219.75 342.25 C211.62207524 336.532198 203.56333759 330.72175762 195.51611328 324.89111328 C191.01303966 321.62999921 186.50413893 318.37694485 181.99584961 315.12304688 C178.26746697 312.43147046 174.54138321 309.7368343 170.8203125 307.03515625 C161.32025317 300.14398107 151.74643123 293.36732681 142.12109375 286.65234375 C137.65242783 283.53456759 133.19863654 280.39626383 128.75 277.25 C89.59735922 249.59010854 49.92524037 222.63074962 9.25 197.25 C8.29416016 196.65348633 7.33832031 196.05697266 6.35351562 195.44238281 C-7.3589067 186.90388086 -21.13542318 178.46661943 -35.14868164 170.42871094 C-36.36749813 169.72877306 -37.58616821 169.02858016 -38.8046875 168.328125 C-39.39940353 167.98642273 -39.99411957 167.64472046 -40.6068573 167.29266357 C-44.36119316 165.11487453 -47.97906495 162.79500461 -51.5703125 160.359375 C-65.89217043 150.92537632 -78.33816309 149.74330878 -94.95507812 149.44398499 C-138.55869359 148.47771378 -185.20105393 129.52703441 -215.75 98.25 C-226.90254314 86.32090941 -231.40329218 75.09808661 -231.08203125 58.94140625 C-230.57514039 48.61376582 -226.29871983 40.70655864 -219.140625 33.40625 C-202.91239007 18.76901849 -181.96522866 20.19744614 -161.375 20 C-160.21154053 19.9786499 -159.04808105 19.9572998 -157.84936523 19.93530273 C-147.9646215 19.89666576 -138.40132214 21.20339542 -129.75 26.25 C-129.4715625 24.7959375 -129.4715625 24.7959375 -129.1875 23.3125 C-126.6649788 14.5369685 -118.80282629 7.13818246 -111.06469727 2.71508789 C-104.98823888 0.17223434 -98.22687044 0.64834326 -91.74609375 0.51953125 C-90.26177452 0.48011791 -88.77748575 0.43954248 -87.29322815 0.39787292 C-83.38436202 0.2916153 -79.47527994 0.20263852 -75.56591797 0.11688232 C-72.43746083 0.04535042 -69.30939713 -0.03856567 -66.18126869 -0.12310982 C-20.82556223 -1.3479022 -20.82556223 -1.3479022 0 0 Z " fill="#FFFFFF" transform="translate(1375.75,166.75)"/>
</svg>
